<svg xmlns="http://www.w3.org/2000/svg" version="1.1" xmlns:xlink="http://www.w3.org/1999/xlink" xmlns:svgjs="http://svgjs.dev/svgjs" width="1500" height="594" viewBox="0 0 1500 594"><g transform="matrix(1,0,0,1,-0.9090909090909918,0.04180480058840885)"><svg viewBox="0 0 396 157" data-background-color="#ffffff" preserveAspectRatio="xMidYMid meet" height="594" width="1500" xmlns="http://www.w3.org/2000/svg" xmlns:xlink="http://www.w3.org/1999/xlink"><g id="tight-bounds" transform="matrix(1,0,0,1,0.2400000000000091,-0.011049416990545069)"><svg viewBox="0 0 395.52 157.0220988339811" height="157.0220988339811" width="395.52"><g><svg viewBox="0 0 395.52 157.0220988339811" height="157.0220988339811" width="395.52"><g><svg viewBox="0 0 395.52 157.0220988339811" height="157.0220988339811" width="395.52"><g id="textblocktransform"><svg viewBox="0 0 395.52 157.0220988339811" height="157.0220988339811" width="395.52" id="textblock"><g><svg viewBox="0 0 395.52 157.0220988339811" height="157.0220988339811" width="395.52"><g transform="matrix(1,0,0,1,0,0)"><svg width="395.52" viewBox="3.5 -35.75 90.05 35.75" height="157.0220988339811" data-palette-color="url(#15995cc7-9c59-41fd-bb3c-8e30af76e543)"></svg></g></svg></g></svg></g></svg></g></svg></g><defs></defs><mask id="e58ded4a-604d-4346-8434-5a75b7bd2515"><g id="SvgjsG4278"><svg viewBox="0 0 395.52 157.0220988339811" height="157.0220988339811" width="395.52"><g><svg viewBox="0 0 395.52 157.0220988339811" height="157.0220988339811" width="395.52"><g><svg viewBox="0 0 395.52 157.0220988339811" height="157.0220988339811" width="395.52"><g id="SvgjsG4277"><svg viewBox="0 0 395.52 157.0220988339811" height="157.0220988339811" width="395.52" id="SvgjsSvg4276"><g><svg viewBox="0 0 395.52 157.0220988339811" height="157.0220988339811" width="395.52"><g transform="matrix(1,0,0,1,0,0)"><svg width="395.52" viewBox="3.5 -35.75 90.05 35.75" height="157.0220988339811" data-palette-color="url(#15995cc7-9c59-41fd-bb3c-8e30af76e543)"><path d="M11.5 0L3.5 0 3.5-35.75 11.6-35.75 36.9-10.05 36.9-35.75 44.9-35.75 44.9 0 36.8 0 11.5-25.75 11.5 0ZM59.9 0L51.9 0 51.9-35.75 81.85-35.75Q87.4-35.75 90.47-32.95 93.55-30.15 93.55-24.45L93.55-24.45Q93.55-19.6 91.3-16.85 89.05-14.1 84.9-13.4L84.9-13.4 93.15 0 84.05 0 76.4-13.15 59.9-13.15 59.9 0ZM80.9-29.25L80.9-29.25 59.9-29.25 59.9-19.7 80.9-19.65Q83.1-19.65 84.27-20.75 85.45-21.85 85.45-24.45L85.45-24.45Q85.45-27.1 84.27-28.18 83.1-29.25 80.9-29.25Z" opacity="1" transform="matrix(1,0,0,1,0,0)" fill="white" class="wordmark-text-0" id="SvgjsPath4275"></path></svg></g></svg></g></svg></g></svg></g></svg></g><defs><mask></mask></defs></svg><rect width="395.52" height="157.0220988339811" fill="black" stroke="none" visibility="hidden"></rect></g></mask><linearGradient x1="0.054" x2="0.941" y1="0.5" y2="0.5" id="15995cc7-9c59-41fd-bb3c-8e30af76e543"><stop stop-color="#8c8c8c" offset="0"></stop><stop stop-color="#e3e4e5" offset="0.498"></stop><stop stop-color="#8c8c8c" offset="1"></stop></linearGradient><rect width="395.52" height="157.0220988339811" fill="url(#15995cc7-9c59-41fd-bb3c-8e30af76e543)" mask="url(#e58ded4a-604d-4346-8434-5a75b7bd2515)" data-fill-palette-color="primary"></rect></svg><rect width="395.52" height="157.0220988339811" fill="none" stroke="none" visibility="hidden"></rect></g></svg></g></svg>